<?xml version="1.0" standalone="no"?>
<!DOCTYPE svg PUBLIC "-//W3C//DTD SVG 20010904//EN"
 "http://www.w3.org/TR/2001/REC-SVG-20010904/DTD/svg10.dtd">
<svg version="1.0" xmlns="http://www.w3.org/2000/svg"
 width="256.000000pt" height="256.000000pt" viewBox="0 0 256.000000 256.000000"
 preserveAspectRatio="xMidYMid meet">
<metadata>
Created by potrace 1.11, written by Peter Selinger 2001-2013
</metadata>
<g transform="translate(0.000000,256.000000) scale(0.100000,-0.100000)"
fill="#000000" stroke="none">
<path d="M1165 2514 c-531 -58 -959 -422 -1092 -932 -20 -76 -26 -130 -30
-254 -9 -247 23 -403 122 -603 250 -505 797 -775 1356 -669 480 91 870 476
975 964 23 107 26 380 5 485 -64 324 -256 617 -521 794 -155 104 -287 160
-460 195 -78 16 -285 27 -355 20z m387 -600 c43 -39 39 -52 -172 -619 -111
-297 -210 -559 -220 -581 -13 -32 -26 -45 -52 -53 -59 -20 -118 19 -118 78 0
27 414 1147 433 1169 28 35 94 37 129 6z m-655 -210 c27 -17 38 -53 28 -91 -4
-17 -63 -85 -151 -173 l-144 -146 136 -134 c154 -153 173 -183 149 -234 -19
-40 -62 -61 -102 -51 -29 7 -433 399 -433 420 0 16 402 413 430 424 28 11 54
6 87 -15z m867 11 c17 -8 121 -105 231 -215 l200 -200 -210 -210 c-116 -116
-220 -213 -233 -216 -56 -15 -120 48 -107 105 4 17 58 80 150 171 l145 144
-150 151 c-135 137 -150 155 -150 186 0 39 22 76 54 89 30 12 34 12 70 -5z"/>
</g>
</svg>
